<mxfile host="65bd71144e">
    <diagram id="XkoMV7-JwuQF7P5hXUa9" name="Page-1">
        <mxGraphModel dx="2638" dy="807" grid="1" gridSize="10" guides="1" tooltips="1" connect="1" arrows="1" fold="1" page="1" pageScale="1" pageWidth="827" pageHeight="1169" math="0" shadow="0">
            <root>
                <mxCell id="0"/>
                <mxCell id="1" parent="0"/>
                <mxCell id="23" style="edgeStyle=orthogonalEdgeStyle;html=1;exitX=0.5;exitY=1;exitDx=0;exitDy=0;" parent="1" source="3" target="6" edge="1">
                    <mxGeometry relative="1" as="geometry"/>
                </mxCell>
                <mxCell id="3" value="" style="ellipse;" parent="1" vertex="1">
                    <mxGeometry x="140" y="10" width="30" height="30" as="geometry"/>
                </mxCell>
                <mxCell id="5" value="" style="shape=sumEllipse;perimeter=ellipsePerimeter;whiteSpace=wrap;html=1;backgroundOutline=1;" parent="1" vertex="1">
                    <mxGeometry x="855" y="270" width="30" height="30" as="geometry"/>
                </mxCell>
                <mxCell id="24" style="edgeStyle=orthogonalEdgeStyle;html=1;exitX=1;exitY=0.5;exitDx=0;exitDy=0;entryX=0;entryY=0.5;entryDx=0;entryDy=0;" parent="1" source="6" target="9" edge="1">
                    <mxGeometry relative="1" as="geometry">
                        <mxPoint x="50" y="480" as="targetPoint"/>
                        <Array as="points">
                            <mxPoint x="190" y="105"/>
                            <mxPoint x="190" y="105"/>
                        </Array>
                    </mxGeometry>
                </mxCell>
                <mxCell id="6" value="&lt;div style=&quot;font-family: Menlo, Monaco, &amp;quot;Courier New&amp;quot;, monospace; line-height: 18px;&quot;&gt;&lt;div style=&quot;line-height: 18px;&quot;&gt;test_types=[&lt;span style=&quot;background-color: initial;&quot;&gt;&quot;idle&quot;,&amp;nbsp;&lt;/span&gt;&lt;/div&gt;&lt;div style=&quot;line-height: 18px;&quot;&gt;&quot;cp_light_1client&quot;,&amp;nbsp;&lt;/div&gt;&lt;div style=&quot;line-height: 18px;&quot;&gt;&quot;cp_heavy_8client&quot;,&amp;nbsp;&lt;/div&gt;&lt;div style=&quot;line-height: 18px;&quot;&gt;&quot;cp_heavy_12client&quot;,&amp;nbsp;&lt;/div&gt;&lt;div style=&quot;line-height: 18px;&quot;&gt;&quot;dp_redis_density&quot;,&amp;nbsp;&lt;/div&gt;&lt;div style=&quot;line-height: 18px;&quot;&gt;&quot;reliability-control&quot;,&amp;nbsp;&lt;/div&gt;&lt;div style=&quot;line-height: 18px;&quot;&gt;&quot;reliability-worker&quot;,&amp;nbsp;&lt;/div&gt;&lt;div style=&quot;line-height: 18px;&quot;&gt;&quot;reliability-control-no-pressure-long&quot;,&lt;/div&gt;&lt;div style=&quot;line-height: 18px;&quot;&gt;&quot;reliability-worker-no-pressure-long&quot;&lt;span style=&quot;background-color: initial;&quot;&gt;]&lt;/span&gt;&lt;/div&gt;&lt;/div&gt;" style="html=1;align=center;verticalAlign=top;rounded=1;absoluteArcSize=1;arcSize=10;dashed=0;" parent="1" vertex="1">
                    <mxGeometry x="10" y="62.5" width="290" height="177.5" as="geometry"/>
                </mxCell>
                <mxCell id="7" value="for &lt;b&gt;&lt;i&gt;test&lt;/i&gt;&lt;/b&gt; of test_types" style="shape=umlFrame;whiteSpace=wrap;html=1;width=120;height=30;boundedLbl=1;verticalAlign=middle;align=left;spacingLeft=5;labelBackgroundColor=none;" parent="1" vertex="1">
                    <mxGeometry x="320" y="10" width="630" height="240" as="geometry"/>
                </mxCell>
                <mxCell id="8" value="for &lt;b&gt;&lt;i&gt;i&lt;/i&gt;&lt;/b&gt; of 5" style="shape=umlFrame;whiteSpace=wrap;html=1;width=120;height=30;boundedLbl=1;verticalAlign=middle;align=left;spacingLeft=5;labelBackgroundColor=none;" parent="1" vertex="1">
                    <mxGeometry x="344" y="50" width="346" height="190" as="geometry"/>
                </mxCell>
                <mxCell id="25" style="edgeStyle=orthogonalEdgeStyle;html=1;exitX=0.5;exitY=1;exitDx=0;exitDy=0;" parent="1" source="9" target="10" edge="1">
                    <mxGeometry relative="1" as="geometry">
                        <Array as="points"/>
                    </mxGeometry>
                </mxCell>
                <mxCell id="9" value="wait 30 min" style="html=1;align=center;verticalAlign=top;rounded=1;absoluteArcSize=1;arcSize=10;dashed=0;labelBackgroundColor=none;" parent="1" vertex="1">
                    <mxGeometry x="375" y="90" width="110" height="30" as="geometry"/>
                </mxCell>
                <mxCell id="26" style="edgeStyle=orthogonalEdgeStyle;html=1;exitX=0.5;exitY=1;exitDx=0;exitDy=0;entryX=0.5;entryY=0;entryDx=0;entryDy=0;" parent="1" source="10" target="11" edge="1">
                    <mxGeometry relative="1" as="geometry"/>
                </mxCell>
                <mxCell id="10" value="tag netdata instances" style="html=1;align=center;verticalAlign=top;rounded=1;absoluteArcSize=1;arcSize=10;dashed=0;labelBackgroundColor=none;" parent="1" vertex="1">
                    <mxGeometry x="360" y="145" width="140" height="30" as="geometry"/>
                </mxCell>
                <mxCell id="27" style="edgeStyle=orthogonalEdgeStyle;html=1;exitX=1;exitY=0.5;exitDx=0;exitDy=0;entryX=0;entryY=0.5;entryDx=0;entryDy=0;" parent="1" source="11" target="12" edge="1">
                    <mxGeometry relative="1" as="geometry">
                        <mxPoint x="520" y="105" as="targetPoint"/>
                        <Array as="points">
                            <mxPoint x="510" y="210"/>
                            <mxPoint x="510" y="105"/>
                        </Array>
                    </mxGeometry>
                </mxCell>
                <mxCell id="11" value="run &lt;b&gt;&lt;i&gt;test&lt;/i&gt;&lt;/b&gt;" style="html=1;align=center;verticalAlign=top;rounded=1;absoluteArcSize=1;arcSize=10;dashed=0;labelBackgroundColor=none;" parent="1" vertex="1">
                    <mxGeometry x="360" y="195" width="140" height="30" as="geometry"/>
                </mxCell>
                <mxCell id="28" style="edgeStyle=orthogonalEdgeStyle;html=1;exitX=0.5;exitY=1;exitDx=0;exitDy=0;" parent="1" source="12" target="13" edge="1">
                    <mxGeometry relative="1" as="geometry"/>
                </mxCell>
                <mxCell id="12" value="derive metrics &lt;br&gt;from database" style="html=1;align=center;verticalAlign=top;rounded=1;absoluteArcSize=1;arcSize=10;dashed=0;labelBackgroundColor=none;" parent="1" vertex="1">
                    <mxGeometry x="525" y="85" width="150" height="40" as="geometry"/>
                </mxCell>
                <mxCell id="33" style="edgeStyle=orthogonalEdgeStyle;html=1;exitX=1;exitY=0.5;exitDx=0;exitDy=0;entryX=0.5;entryY=0;entryDx=0;entryDy=0;" parent="1" source="13" target="16" edge="1">
                    <mxGeometry relative="1" as="geometry">
                        <Array as="points">
                            <mxPoint x="700" y="175"/>
                            <mxPoint x="700" y="140"/>
                        </Array>
                    </mxGeometry>
                </mxCell>
                <mxCell id="13" value="commit acquired &lt;br&gt;test artifacts" style="html=1;align=center;verticalAlign=top;rounded=1;absoluteArcSize=1;arcSize=10;dashed=0;labelBackgroundColor=none;" parent="1" vertex="1">
                    <mxGeometry x="530" y="155" width="140" height="40" as="geometry"/>
                </mxCell>
                <mxCell id="35" style="edgeStyle=orthogonalEdgeStyle;html=1;exitX=0.5;exitY=1;exitDx=0;exitDy=0;entryX=0.5;entryY=0;entryDx=0;entryDy=0;" parent="1" source="14" target="15" edge="1">
                    <mxGeometry relative="1" as="geometry"/>
                </mxCell>
                <mxCell id="14" value="wait 30 min" style="html=1;align=center;verticalAlign=top;rounded=1;absoluteArcSize=1;arcSize=10;dashed=0;labelBackgroundColor=none;" parent="1" vertex="1">
                    <mxGeometry x="800" y="155" width="140" height="25" as="geometry"/>
                </mxCell>
                <mxCell id="31" style="edgeStyle=orthogonalEdgeStyle;html=1;exitX=0.5;exitY=1;exitDx=0;exitDy=0;entryX=0.5;entryY=0;entryDx=0;entryDy=0;" parent="1" source="15" target="5" edge="1">
                    <mxGeometry relative="1" as="geometry"/>
                </mxCell>
                <mxCell id="15" value="run kube-bench test" style="html=1;align=center;verticalAlign=top;rounded=1;absoluteArcSize=1;arcSize=10;dashed=0;labelBackgroundColor=none;" parent="1" vertex="1">
                    <mxGeometry x="800" y="200" width="140" height="30" as="geometry"/>
                </mxCell>
                <mxCell id="20" value="Yes" style="edgeStyle=orthogonalEdgeStyle;html=1;exitX=1;exitY=0.5;exitDx=0;exitDy=0;entryX=0.5;entryY=0;entryDx=0;entryDy=0;" parent="1" source="16" target="19" edge="1">
                    <mxGeometry relative="1" as="geometry"/>
                </mxCell>
                <mxCell id="21" style="edgeStyle=orthogonalEdgeStyle;html=1;entryX=0.5;entryY=0;entryDx=0;entryDy=0;exitX=0.5;exitY=1;exitDx=0;exitDy=0;" parent="1" source="16" target="14" edge="1">
                    <mxGeometry relative="1" as="geometry">
                        <mxPoint x="960" y="185" as="targetPoint"/>
                        <Array as="points">
                            <mxPoint x="870" y="140"/>
                        </Array>
                    </mxGeometry>
                </mxCell>
                <mxCell id="32" value="No" style="edgeLabel;html=1;align=center;verticalAlign=middle;resizable=0;points=[];" parent="21" vertex="1" connectable="0">
                    <mxGeometry x="-0.4222" y="2" relative="1" as="geometry">
                        <mxPoint x="-14" y="2" as="offset"/>
                    </mxGeometry>
                </mxCell>
                <mxCell id="16" value="if test contains &#10;long-living containers" style="rhombus;labelBackgroundColor=none;rotation=-90;" parent="1" vertex="1">
                    <mxGeometry x="650" y="105" width="200" height="70" as="geometry"/>
                </mxCell>
                <mxCell id="22" style="edgeStyle=orthogonalEdgeStyle;html=1;exitX=0.5;exitY=1;exitDx=0;exitDy=0;entryX=0.5;entryY=0;entryDx=0;entryDy=0;" parent="1" source="19" target="14" edge="1">
                    <mxGeometry relative="1" as="geometry">
                        <Array as="points"/>
                    </mxGeometry>
                </mxCell>
                <mxCell id="19" value="clean containers step" style="html=1;align=center;verticalAlign=top;rounded=1;absoluteArcSize=1;arcSize=10;dashed=0;labelBackgroundColor=none;" parent="1" vertex="1">
                    <mxGeometry x="800" y="55" width="140" height="30" as="geometry"/>
                </mxCell>
            </root>
        </mxGraphModel>
    </diagram>
</mxfile>